<svg width="22" height="22" viewBox="0 0 22 22" fill="none" xmlns="http://www.w3.org/2000/svg">
<path d="M12.75 1C8.77192 3.4558 9.24998 10.375 9.24998 10.375C9.24998 10.375 7.5 9.74998 7.5 6.93751C5.41214 8.23465 4 10.7278 4 13.5C4 17.6421 7.134 21 11 21C14.866 21 18 17.6421 18 13.5C18 7.40626 12.75 6.15624 12.75 1ZM11.6149 18.4157C10.2082 18.7915 8.78358 17.8744 8.4328 16.3672C8.0821 14.8601 8.93808 13.3336 10.3448 12.9578C13.7408 12.0506 14.1664 10.0045 14.1664 10.0045C14.1664 10.0045 15.8599 17.2817 11.6149 18.4157Z" fill="white"/>
</svg>
