<svg width="16" height="16" viewBox="0 0 16 16" fill="none" xmlns="http://www.w3.org/2000/svg">
<g clip-path="url(#clip0_1103_2175)">
<path d="M15.4414 1.5254C15.0321 1.04795 14.4865 0.775094 13.8726 0.843324H2.07247C0.844709 0.843324 -0.178423 2.00288 0.0262036 3.23064L1.66322 13.462C1.79964 14.4851 2.68635 15.1672 3.70948 15.1672H12.3038C13.3269 15.1672 14.2136 14.4169 14.3501 13.462L15.9871 3.23064C16.0553 2.61676 15.8506 2.00288 15.4414 1.5254ZM9.43902 9.71046C9.23439 9.50583 9.02977 9.3694 8.75694 9.30121L9.30262 6.57286L7.93844 6.30004L7.32456 9.23301C7.05173 9.30121 6.77888 9.50583 6.50605 9.71046L3.0956 6.36824C5.75574 3.70809 10.0529 3.70809 12.713 6.36824L9.43902 9.71046Z" fill="white"/>
</g>
<defs>
<clipPath id="clip0_1103_2175">
<rect width="16" height="16" fill="white"/>
</clipPath>
</defs>
</svg>
